<svg width="20" height="20" viewBox="0 0 20 20" fill="none" xmlns="http://www.w3.org/2000/svg">
<path d="M14.168 9.16797H15.0013C15.6643 9.16797 16.3002 9.43136 16.7691 9.9002C17.2379 10.369 17.5013 11.0049 17.5013 11.668C17.5013 12.331 17.2379 12.9669 16.7691 13.4357C16.3002 13.9046 15.6643 14.168 15.0013 14.168H14.168" stroke="#222222" stroke-width="1.5" stroke-linecap="round" stroke-linejoin="round"/>
<path d="M7.5 10V15" stroke="#222222" stroke-width="1.5" stroke-linecap="round" stroke-linejoin="round"/>
<path d="M10.832 10V15" stroke="#222222" stroke-width="1.5" stroke-linecap="round" stroke-linejoin="round"/>
<path d="M11.6667 6.2513C10.8333 6.2513 10.4667 6.66797 9.16667 6.66797C7.86667 6.66797 7.5 6.2513 6.66667 6.2513C5.83333 6.2513 5.23333 6.66797 4.58333 6.66797C4.0308 6.66797 3.50089 6.44848 3.11019 6.05777C2.71949 5.66707 2.5 5.13717 2.5 4.58464C2.5 4.0321 2.71949 3.5022 3.11019 3.1115C3.50089 2.7208 4.0308 2.5013 4.58333 2.5013C5.23333 2.5013 5.89167 2.91797 6.66667 2.91797C7.44167 2.91797 7.86667 1.66797 9.16667 1.66797C10.4667 1.66797 10.8333 2.91797 11.6667 2.91797C12.5 2.91797 13.1 2.5013 13.75 2.5013C14.3025 2.5013 14.8324 2.7208 15.2231 3.1115C15.6138 3.5022 15.8333 4.0321 15.8333 4.58464C15.8333 5.13717 15.6138 5.66707 15.2231 6.05777C14.8324 6.44848 14.3025 6.66797 13.75 6.66797C13.1 6.66797 12.5 6.2513 11.6667 6.2513Z" stroke="#222222" stroke-width="1.5" stroke-linecap="round" stroke-linejoin="round"/>
<path d="M4.16797 6.66797V16.668C4.16797 17.11 4.34356 17.5339 4.65612 17.8465C4.96868 18.159 5.39261 18.3346 5.83464 18.3346H12.5013C12.9433 18.3346 13.3673 18.159 13.6798 17.8465C13.9924 17.5339 14.168 17.11 14.168 16.668V6.66797" stroke="#222222" stroke-width="1.5" stroke-linecap="round" stroke-linejoin="round"/>
</svg>
