<svg width="20" height="20" viewBox="0 0 20 20" fill="none" xmlns="http://www.w3.org/2000/svg">
<path d="M12.5 10.832C12.5 10.169 12.2366 9.5331 11.7678 9.06426C11.2989 8.59542 10.663 8.33203 10 8.33203C9.33696 8.33203 8.70107 8.59542 8.23223 9.06426C7.76339 9.5331 7.5 10.169 7.5 10.832" stroke="#222222" stroke-width="1.5" stroke-linecap="round" stroke-linejoin="round"/>
<path d="M3.33203 16.2513V3.7513C3.33203 3.19877 3.55152 2.66886 3.94223 2.27816C4.33293 1.88746 4.86283 1.66797 5.41536 1.66797H15.832C16.053 1.66797 16.265 1.75577 16.4213 1.91205C16.5776 2.06833 16.6654 2.28029 16.6654 2.5013V17.5013C16.6654 17.7223 16.5776 17.9343 16.4213 18.0906C16.265 18.2468 16.053 18.3346 15.832 18.3346H5.41536C4.86283 18.3346 4.33293 18.1151 3.94223 17.7244C3.55152 17.3337 3.33203 16.8038 3.33203 16.2513ZM3.33203 16.2513C3.33203 15.6988 3.55152 15.1689 3.94223 14.7782C4.33293 14.3875 4.86283 14.168 5.41536 14.168H16.6654" stroke="#222222" stroke-width="1.5" stroke-linecap="round" stroke-linejoin="round"/>
<path d="M9.9987 8.33333C10.9192 8.33333 11.6654 7.58714 11.6654 6.66667C11.6654 5.74619 10.9192 5 9.9987 5C9.07822 5 8.33203 5.74619 8.33203 6.66667C8.33203 7.58714 9.07822 8.33333 9.9987 8.33333Z" stroke="#222222" stroke-width="1.5" stroke-linecap="round" stroke-linejoin="round"/>
</svg>
