<svg width="20" height="20" viewBox="0 0 20 20" fill="none" xmlns="http://www.w3.org/2000/svg">
<path d="M7.4987 7.5013C8.41917 7.5013 9.16536 6.75511 9.16536 5.83464C9.16536 4.91416 8.41917 4.16797 7.4987 4.16797C6.57822 4.16797 5.83203 4.91416 5.83203 5.83464C5.83203 6.75511 6.57822 7.5013 7.4987 7.5013Z" stroke="#222222" stroke-width="1.5" stroke-linecap="round" stroke-linejoin="round"/>
<path d="M6 6.58333L2.5 9.16667V16.6667C2.5 17.1667 2.83333 17.5 3.33333 17.5H16.6667C17.1667 17.5 17.5 17.1667 17.5 16.6667V9.16667C17.5 7.5 15 4.16667 11.6667 2.5L8.66667 4.66667" stroke="#222222" stroke-width="1.5" stroke-linecap="round" stroke-linejoin="round"/>
<path d="M13.3333 10.832H2.5" stroke="#222222" stroke-width="1.5" stroke-linecap="round" stroke-linejoin="round"/>
<path d="M13.3333 14.168H2.5" stroke="#222222" stroke-width="1.5" stroke-linecap="round" stroke-linejoin="round"/>
</svg>
