<svg width="24" height="24" viewBox="0 0 24 24" fill="none" xmlns="http://www.w3.org/2000/svg">
<path d="M9.60348 22.0475C9.60348 22.0475 13.7617 22.0475 14.4057 22.0475M3.26127 17.3255C3.13063 17.4687 3.04442 17.6468 3.01312 17.838C2.98183 18.0293 3.00679 18.2256 3.08498 18.4029C3.16316 18.5803 3.2912 18.7311 3.45352 18.837C3.61585 18.9429 3.80545 18.9994 3.99927 18.9995H19.9993C20.1931 18.9996 20.3827 18.9433 20.5451 18.8376C20.7076 18.7319 20.8358 18.5813 20.9142 18.404C20.9926 18.2268 21.0178 18.0306 20.9867 17.8393C20.9557 17.648 20.8697 17.4699 20.7393 17.3265C19.4093 15.9555 17.9993 13.4985 17.9993 8.99951C17.9993 7.40821 17.3671 5.88209 16.2419 4.75687C15.1167 3.63165 13.5906 2.99951 11.9993 2.99951C10.408 2.99951 8.88185 3.63165 7.75663 4.75687C6.63141 5.88209 5.99927 7.40821 5.99927 8.99951C5.99927 13.4985 4.58827 15.9555 3.26127 17.3255Z" stroke="#222222" stroke-width="2" stroke-linecap="round" stroke-linejoin="round"/>
</svg>
